<svg width="182" height="38" viewBox="0 0 182 38" fill="none" xmlns="http://www.w3.org/2000/svg">
<path d="M0.695 37V1.96H7.511V37H0.695ZM6.551 37V31H21.671V37H6.551ZM42.4903 37V29.272H41.3863V20.68C41.3863 19.176 41.0183 18.056 40.2823 17.32C39.5463 16.584 38.4103 16.216 36.8743 16.216C36.0743 16.216 35.1143 16.232 33.9943 16.264C32.8743 16.296 31.7383 16.344 30.5863 16.408C29.4663 16.44 28.4583 16.488 27.5623 16.552V10.888C28.2983 10.824 29.1303 10.76 30.0583 10.696C30.9863 10.632 31.9303 10.6 32.8903 10.6C33.8823 10.568 34.8103 10.552 35.6743 10.552C38.3623 10.552 40.5863 10.904 42.3463 11.608C44.1383 12.312 45.4823 13.416 46.3783 14.92C47.3063 16.424 47.7703 18.392 47.7703 20.824V37H42.4903ZM34.0903 37.672C32.2023 37.672 30.5383 37.336 29.0983 36.664C27.6903 35.992 26.5863 35.032 25.7863 33.784C25.0183 32.536 24.6343 31.032 24.6343 29.272C24.6343 27.352 25.0983 25.784 26.0263 24.568C26.9863 23.352 28.3143 22.44 30.0103 21.832C31.7383 21.224 33.7543 20.92 36.0583 20.92H42.1063V24.904H35.9623C34.4263 24.904 33.2423 25.288 32.4103 26.056C31.6103 26.792 31.2103 27.752 31.2103 28.936C31.2103 30.12 31.6103 31.08 32.4103 31.816C33.2423 32.552 34.4263 32.92 35.9623 32.92C36.8903 32.92 37.7383 32.76 38.5063 32.44C39.3063 32.088 39.9623 31.512 40.4743 30.712C41.0183 29.88 41.3223 28.76 41.3863 27.352L43.0183 29.224C42.8583 31.048 42.4103 32.584 41.6743 33.832C40.9703 35.08 39.9783 36.04 38.6983 36.712C37.4503 37.352 35.9143 37.672 34.0903 37.672ZM71.6604 26.248V20.344H78.4764C79.8524 20.344 81.0044 20.072 81.9324 19.528C82.8924 18.984 83.6124 18.232 84.0924 17.272C84.6044 16.312 84.8604 15.208 84.8604 13.96C84.8604 12.712 84.6044 11.608 84.0924 10.648C83.6124 9.688 82.8924 8.952 81.9324 8.44C81.0044 7.896 79.8524 7.624 78.4764 7.624H71.6604V1.72H77.9004C80.8444 1.72 83.3404 2.2 85.3884 3.16C87.4684 4.12 89.0524 5.496 90.1404 7.288C91.2284 9.048 91.7724 11.144 91.7724 13.576V14.344C91.7724 16.776 91.2284 18.888 90.1404 20.68C89.0524 22.44 87.4684 23.816 85.3884 24.808C83.3404 25.768 80.8444 26.248 77.9004 26.248H71.6604ZM65.8044 37V1.72H72.6204V37H65.8044ZM175.99 37V29.272H174.886V20.68C174.886 19.176 174.518 18.056 173.782 17.32C173.046 16.584 171.91 16.216 170.374 16.216C169.574 16.216 168.614 16.232 167.494 16.264C166.374 16.296 165.238 16.344 164.086 16.408C162.966 16.44 161.958 16.488 161.062 16.552V10.888C161.798 10.824 162.63 10.76 163.558 10.696C164.486 10.632 165.43 10.6 166.39 10.6C167.382 10.568 168.31 10.552 169.174 10.552C171.862 10.552 174.086 10.904 175.846 11.608C177.638 12.312 178.982 13.416 179.878 14.92C180.806 16.424 181.27 18.392 181.27 20.824V37H175.99ZM167.59 37.672C165.702 37.672 164.038 37.336 162.598 36.664C161.19 35.992 160.086 35.032 159.286 33.784C158.518 32.536 158.134 31.032 158.134 29.272C158.134 27.352 158.598 25.784 159.526 24.568C160.486 23.352 161.814 22.44 163.51 21.832C165.238 21.224 167.254 20.92 169.558 20.92H175.606V24.904H169.462C167.926 24.904 166.742 25.288 165.91 26.056C165.11 26.792 164.71 27.752 164.71 28.936C164.71 30.12 165.11 31.08 165.91 31.816C166.742 32.552 167.926 32.92 169.462 32.92C170.39 32.92 171.238 32.76 172.006 32.44C172.806 32.088 173.462 31.512 173.974 30.712C174.518 29.88 174.822 28.76 174.886 27.352L176.518 29.224C176.358 31.048 175.91 32.584 175.174 33.832C174.47 35.08 173.478 36.04 172.198 36.712C170.95 37.352 169.414 37.672 167.59 37.672Z" fill="white"/>
<path d="M98.1181 37V10.936H104.79V37H98.1181ZM94.4701 15.928V10.936H104.79V15.928H94.4701ZM100.566 7.816C99.2541 7.816 98.2781 7.48 97.6381 6.808C97.0301 6.104 96.7261 5.24 96.7261 4.216C96.7261 3.128 97.0301 2.248 97.6381 1.576C98.2781 0.903997 99.2541 0.567997 100.566 0.567997C101.878 0.567997 102.838 0.903997 103.446 1.576C104.054 2.248 104.358 3.128 104.358 4.216C104.358 5.24 104.054 6.104 103.446 6.808C102.838 7.48 101.878 7.816 100.566 7.816Z" fill="#FFA200"/>
<path d="M110.8 37V31.72L123.664 16.264V17.032L122.656 15.688L123.472 16.072H110.752V10.936H130.624V16.216L117.76 31.672V30.952L118.816 32.296L118 31.864H131.152V37H110.8Z" fill="#CF3031"/>
<path d="M134.659 37V31.72L147.523 16.264V17.032L146.515 15.688L147.331 16.072H134.611V10.936H154.483V16.216L141.619 31.672V30.952L142.675 32.296L141.859 31.864H155.011V37H134.659Z" fill="#5C913B"/>
</svg>
